# Blender v3.5.1 OBJ File: 'skybox.blend'
# www.blender.org
mtllib finger_l.mtl
o 立方体.005_立方体.004
v -0.007197 0.000000 0.000000
v -0.007197 -0.000000 0.010729
v -0.007197 -0.050629 0.000000
v -0.007197 -0.090192 0.038633
v -0.000000 0.000000 0.000000
v -0.000000 -0.000000 0.010729
v -0.000000 -0.050629 0.000000
v -0.000000 -0.090192 0.038633
v -0.007197 -0.042258 0.000000
v -0.007197 -0.042258 0.010729
v -0.000000 -0.042258 0.000000
v -0.000000 -0.042258 0.010729
v -0.007197 -0.081130 0.045798
v -0.007197 -0.090192 0.045798
v -0.000000 -0.090192 0.045798
v -0.000000 -0.081130 0.045798
v -0.007197 -0.081130 0.073012
v -0.007197 -0.090192 0.073012
v -0.000000 -0.090192 0.073012
v -0.000000 -0.081130 0.073012
vt 0.375000 0.625000
vt 0.625000 0.625000
vt 0.625000 0.750000
vt 0.375000 0.750000
vt 0.625000 1.000000
vt 0.375000 1.000000
vt 0.125000 0.625000
vt 0.125000 0.750000
vt 0.875000 0.625000
vt 0.875000 0.750000
vt 0.125000 0.500000
vt 0.375000 0.500000
vt 0.375000 0.125000
vt 0.625000 0.125000
vt 0.625000 0.125000
vt 0.625000 0.250000
vt 0.625000 0.250000
vt 0.375000 0.250000
vt 0.375000 0.000000
vt 0.625000 0.000000
vt 0.625000 0.125000
vt 0.625000 0.250000
vt 0.625000 0.625000
vt 0.875000 0.625000
vt 0.625000 0.500000
vt 0.625000 0.500000
vt 0.625000 0.500000
vt 0.875000 0.500000
vt 0.875000 0.625000
vt 0.625000 0.625000
vt 0.000000 0.000000
vt 0.000000 0.000000
vt 0.000000 0.000000
vt 0.000000 0.000000
vn -1.0000 0.0000 0.0000
vn 0.0000 -1.0000 -0.0000
vn 0.0000 0.0000 1.0000
vn 0.0000 -0.0000 -1.0000
vn 1.0000 0.0000 0.0000
vn 0.0000 -0.6699 -0.7425
vn 0.0000 0.7567 0.6537
vn 0.0000 1.0000 0.0000
usemtl None
s off
f 11/1/1 12/2/1 6/3/1 5/4/1
f 5/4/2 6/3/2 2/5/2 1/6/2
f 9/7/3 11/1/3 5/4/3 1/8/3
f 12/2/4 10/9/4 2/10/4 6/3/4
f 3/11/3 7/12/3 11/1/3 9/7/3
f 9/13/5 10/14/5 13/15/5 14/16/5 4/17/5 3/18/5
f 1/19/5 2/20/5 10/14/5 9/13/5
f 14/16/5 13/15/5 17/21/5 18/22/5
f 10/9/6 12/2/6 16/23/6 13/24/6
f 3/18/7 4/17/7 14/16/7 15/25/7 8/26/7 7/12/7
f 7/12/1 8/26/1 15/25/1 16/23/1 12/2/1 11/1/1
f 19/27/4 18/28/4 17/29/4 20/30/4
f 13/24/2 16/23/2 20/30/2 17/29/2
f 15/25/8 14/16/8 18/22/8 19/27/8
f 16/23/1 15/25/1 19/27/1 20/30/1
f 4/31/8 14/32/8 15/33/8 8/34/8
