# Blender v3.6.0 OBJ File: '日式房间.blend'
# www.blender.org
mtllib grassplot.mtl
o Cube
v 0.748646 4.309606 1.070988
v 0.748646 4.309606 1.563609
v 0.748646 -4.902909 1.070988
v 0.748646 -4.902909 1.563609
v 7.597380 4.309606 1.070988
v 7.597380 4.309606 1.563609
v 7.597380 -4.902909 1.070988
v 7.597380 -4.902909 1.563609
vt 0.375000 0.000000
vt 0.375000 0.250000
vt 0.625000 0.250000
vt 0.625000 0.000000
vt 0.375000 0.500000
vt 0.625000 0.500000
vt 0.375000 0.750000
vt 0.625000 0.750000
vt 0.375000 1.000000
vt 0.625000 1.000000
vt 0.125000 0.500000
vt 0.125000 0.750000
vt 0.875000 0.750000
vt 0.875000 0.500000
vn -1.0000 0.0000 0.0000
vn 0.0000 -1.0000 0.0000
vn 1.0000 0.0000 0.0000
vn 0.0000 1.0000 0.0000
vn 0.0000 0.0000 -1.0000
vn 0.0000 0.0000 1.0000
usemtl 榻榻米
s off
f 1/1/1 3/2/1 4/3/1 2/4/1
f 3/2/2 7/5/2 8/6/2 4/3/2
f 7/5/3 5/7/3 6/8/3 8/6/3
f 5/7/4 1/9/4 2/10/4 6/8/4
f 3/11/5 1/12/5 5/7/5 7/5/5
f 8/6/6 6/8/6 2/13/6 4/14/6
o Cube.177_Cube.179
v 1.030364 -2.496879 1.274919
v 1.030364 -2.496879 1.359678
v 1.030364 1.903576 1.274919
v 1.030364 1.903576 1.359678
v 7.315662 -2.496879 1.274919
v 7.315662 -2.496879 1.359678
v 7.315662 1.903576 1.274919
v 7.315662 1.903576 1.359678
v 1.026322 -2.500920 1.270877
v 1.026322 -2.500920 1.363720
v 1.026322 1.907617 1.270877
v 1.026322 1.907617 1.363720
v 7.319704 -2.500920 1.270877
v 7.319704 -2.500920 1.363720
v 7.319704 1.907617 1.270877
v 7.319704 1.907617 1.363720
vt 0.375000 0.000000
vt 0.625000 0.000000
vt 0.625000 0.250000
vt 0.375000 0.250000
vt 0.625000 0.500000
vt 0.375000 0.500000
vt 0.625000 0.750000
vt 0.375000 0.750000
vt 0.625000 1.000000
vt 0.375000 1.000000
vt 0.125000 0.500000
vt 0.125000 0.750000
vt 0.875000 0.500000
vt 0.875000 0.750000
vt 0.375000 0.000000
vt 0.375000 0.250000
vt 0.625000 0.250000
vt 0.625000 0.000000
vt 0.375000 0.500000
vt 0.625000 0.500000
vt 0.375000 0.750000
vt 0.625000 0.750000
vt 0.375000 1.000000
vt 0.625000 1.000000
vt 0.125000 0.500000
vt 0.125000 0.750000
vt 0.875000 0.750000
vt 0.875000 0.500000
vn -1.0000 0.0000 0.0000
vn 0.0000 1.0000 0.0000
vn 1.0000 0.0000 0.0000
vn 0.0000 -1.0000 0.0000
vn 0.0000 0.0000 -1.0000
vn 0.0000 0.0000 1.0000
usemtl 程序化木纹.001
s off
f 9/15/7 10/16/7 12/17/7 11/18/7
f 11/18/8 12/17/8 16/19/8 15/20/8
f 15/20/9 16/19/9 14/21/9 13/22/9
f 13/22/10 14/21/10 10/23/10 9/24/10
f 11/25/11 15/20/11 13/22/11 9/26/11
f 16/19/12 12/27/12 10/28/12 14/21/12
usemtl a描边
f 17/29/9 19/30/9 20/31/9 18/32/9
f 19/30/10 23/33/10 24/34/10 20/31/10
f 23/33/7 21/35/7 22/36/7 24/34/7
f 21/35/8 17/37/8 18/38/8 22/36/8
f 19/39/12 17/40/12 21/35/12 23/33/12
f 24/34/11 22/36/11 18/41/11 20/42/11
