# Blender v3.5.0 OBJ File: ''
# www.blender.org
mtllib box.mtl
o Cube
v 0.464052 0.464052 0.500000
v 0.500000 0.500000 -0.500000
v 0.464052 -0.464052 0.500000
v 0.500000 -0.500000 -0.500000
v -0.464052 0.464052 0.500000
v -0.500000 0.500000 -0.500000
v -0.464052 -0.464052 0.500000
v -0.500000 -0.500000 -0.500000
v 0.500000 -0.500000 0.500000
v -0.500000 -0.500000 0.500000
v 0.500000 0.500000 0.500000
v -0.500000 0.500000 0.500000
v 0.464052 -0.464052 -0.456788
v -0.464052 -0.464052 -0.456788
v 0.464052 0.464052 -0.456788
v -0.464052 0.464052 -0.456788
vt 0.866013 0.508987
vt 0.866013 0.741013
vt 0.866013 0.741013
vt 0.866013 0.508987
vt 0.375000 0.750000
vt 0.625000 0.750000
vt 0.625000 1.000000
vt 0.375000 1.000000
vt 0.375000 0.000000
vt 0.625000 0.000000
vt 0.625000 0.250000
vt 0.375000 0.250000
vt 0.125000 0.500000
vt 0.375000 0.500000
vt 0.125000 0.750000
vt 0.625000 0.500000
vt 0.633987 0.741013
vt 0.875000 0.750000
vt 0.633987 0.508987
vt 0.875000 0.500000
vt 0.633987 0.508987
vt 0.633987 0.741013
vn 1.0000 0.0000 0.0000
vn 0.0000 -1.0000 0.0000
vn -1.0000 0.0000 0.0000
vn 0.0000 0.0000 -1.0000
vn 0.0000 1.0000 0.0000
vn 0.0000 0.0000 1.0000
usemtl Material
s off
f 5/1/1 7/2/1 14/3/1 16/4/1
f 4/5/2 9/6/2 10/7/2 8/8/2
f 8/9/3 10/10/3 12/11/3 6/12/3
f 6/13/4 2/14/4 4/5/4 8/15/4
f 2/14/1 11/16/1 9/6/1 4/5/1
f 6/12/5 12/11/5 11/16/5 2/14/5
f 3/17/6 7/2/6 10/18/6 9/6/6
f 1/19/6 3/17/6 9/6/6 11/16/6
f 7/2/6 5/1/6 12/20/6 10/18/6
f 5/1/6 1/19/6 11/16/6 12/20/6
f 15/21/6 16/4/6 14/3/6 13/22/6
f 7/2/5 3/17/5 13/22/5 14/3/5
f 1/19/2 5/1/2 16/4/2 15/21/2
f 3/17/3 1/19/3 15/21/3 13/22/3
