# Blender v3.5.0 OBJ File: 'skybox.blend'
# www.blender.org
mtllib calibration_plane.mtl
o 立方体
v -0.019573 -0.220267 -0.009961
v -0.019573 -0.220277 0.000039
v -0.019573 0.019733 -0.009961
v -0.019573 0.019723 0.000039
v 0.280427 -0.220267 -0.009961
v 0.280427 -0.220277 0.000039
v 0.280427 0.019733 -0.009961
v 0.280427 0.019723 0.000039
vt 0.447623 0.469916
vt 0.503046 0.469916
vt 0.503046 0.525340
vt 0.447623 0.525340
vt 0.439259 0.480053
vt 0.488642 0.480053
vt 0.488642 0.529436
vt 0.439259 0.529436
vt 0.458050 0.482716
vt 0.492619 0.482716
vt 0.492619 0.517284
vt 0.458050 0.517284
vt 0.571776 0.468368
vt 0.606574 0.468368
vt 0.606574 0.503166
vt 0.571776 0.503166
vt 0.517331 0.480807
vt 0.550973 0.480807
vt 0.550973 0.514449
vt 0.517331 0.514449
vt 0.998171 0.998171
vt 0.001829 0.998171
vt 0.001829 0.001829
vt 0.998171 0.001829
vn -1.0000 0.0000 0.0000
vn 0.0000 1.0000 0.0010
vn 1.0000 0.0000 0.0000
vn 0.0000 -1.0000 -0.0010
vn 0.0000 0.0000 -1.0000
vn 0.0000 0.0000 1.0000
g 立方体_立方体_材质.003
usemtl 材质.003
s off
f 1/1/1 2/2/1 4/3/1 3/4/1
f 3/5/2 4/6/2 8/7/2 7/8/2
f 7/9/3 8/10/3 6/11/3 5/12/3
f 5/13/4 6/14/4 2/15/4 1/16/4
f 3/17/5 7/18/5 5/19/5 1/20/5
f 8/21/6 4/22/6 2/23/6 6/24/6
