mtllib box.mtl
o 立方体.007_立方体.005
v -0.5 -0.5 -0.25
v -0.4 -0.4 0.25
v -0.5 0.5 -0.25
v -0.4 0.4 0.25
v 0.5 -0.5 -0.25
v 0.4 -0.4 0.25
v 0.5 0.5 -0.25
v 0.4 0.4 0.25
v -0.5 -0.5 0.25
v -0.5 0.5 0.25
v 0.5 0.5 0.25
v 0.5 -0.5 0.25
v -0.4 -0.4 -0.2
v -0.4 0.4 -0.2
v 0.4 0.4 -0.2
v 0.4 -0.4 -0.2
vt 0.375000 0.000000
vt 0.625000 0.000000
vt 0.625000 0.250000
vt 0.375000 0.250000
vt 0.625000 0.500000
vt 0.375000 0.500000
vt 0.625000 0.750000
vt 0.375000 0.750000
vt 0.625000 1.000000
vt 0.375000 1.000000
vt 0.125000 0.500000
vt 0.125000 0.750000
vt 0.640398 0.734602
vt 0.640398 0.515398
vt 0.640398 0.515398
vt 0.640398 0.734602
vt 0.859602 0.734602
vt 0.859602 0.515398
vt 0.875000 0.500000
vt 0.875000 0.750000
vt 0.859602 0.515398
vt 0.859602 0.734602
vn -1.0000 0.0000 0.0000
vn 0.0000 1.0000 0.0000
vn 1.0000 0.0000 0.0000
vn 0.0000 -1.0000 0.0000
vn 0.0000 0.0000 -1.0000
vn -0.9999 -0.0130 0.0000
vn 0.0000 0.0000 1.0000
vn 1.0000 -0.0066 0.0061
vn 0.0065 1.0000 0.0062
usemtl None
s off
f 1/1/1 9/2/1 10/3/1 3/4/1
f 3/4/2 10/3/2 11/5/2 7/6/2
f 7/6/3 11/5/3 12/7/3 5/8/3
f 5/8/4 12/7/4 9/9/4 1/10/4
f 3/11/5 7/6/5 5/8/5 1/12/5
f 6/13/6 8/14/6 15/15/6 16/16/6
f 2/17/7 4/18/7 10/19/7 9/20/7
f 4/18/7 8/14/7 11/5/7 10/19/7
f 8/14/7 6/13/7 12/7/7 11/5/7
f 6/13/7 2/17/7 9/20/7 12/7/7
f 15/15/7 14/21/7 13/22/7 16/16/7
f 4/18/8 2/17/8 13/22/8 14/21/8
f 2/17/9 6/13/9 16/16/9 13/22/9
f 8/14/4 4/18/4 14/21/4 15/15/4