# Blender v3.6.2 OBJ File: 'printer3d.blend'
# www.blender.org
mtllib Trennwand.mtl
o Trennwand_Plane.001
v -0.068574 -0.000000 0.000001
v 0.063889 -0.000000 0.000001
v -0.068574 -0.000000 0.059864
v 0.063889 -0.000000 0.059864
v 0.063889 0.066113 0.000001
v 0.063889 0.066113 0.059864
vt 1.000000 0.000000
vt 0.000000 1.000000
vt 0.000000 0.000000
vt 1.000000 1.000000
vt 1.000000 0.000000
vt 1.000000 1.000000
vn 0.0000 -1.0000 0.0000
vn 1.0000 0.0000 0.0000
g Trennwand_Plane.001_Geheuse
usemtl Geheuse
s off
f 2/1/1 3/2/1 1/3/1
f 4/4/2 5/5/2 6/6/2
f 2/1/1 4/4/1 3/2/1
f 4/4/2 2/1/2 5/5/2
